<svg xmlns="http://www.w3.org/2000/svg" width="20" height="20" fill="none" viewBox="0 0 48 48" class="cb-icon cb-icon-monad pointer-events-none" aria-hidden="true" data-testid="icon-monad" focusable="false" role="img"><path fill="#1C024E" fill-rule="evenodd" d="M24 48C10.8 48 0 37.2 0 23.88.12 10.68 10.8-.118 24.12.002 37.32.121 48 10.801 48 24.241 47.88 37.32 37.2 48 24 48" clip-rule="evenodd"></path><path fill="#836EF9" d="M24 8C19.38 8 8 19.38 8 24s11.38 16 16 16 16-11.38 16-16S28.62 8 24 8m-2.493 25.15c-1.949-.532-7.187-9.695-6.656-11.643.53-1.949 9.694-7.187 11.642-6.656 1.949.53 7.187 9.694 6.656 11.642-.53 1.949-9.694 7.187-11.642 6.656"></path></svg>