<svg xmlns="http://www.w3.org/2000/svg" width="20" height="20" fill="none" viewBox="0 0 120 120" class="cb-icon cb-icon-near pointer-events-none" aria-hidden="true" data-testid="icon-near" focusable="false" role="img"><circle cx="60" cy="60" r="60" fill="#000"></circle><path fill="#fff" d="M78.142 33.067 65.607 51.671c-.867 1.267.8 2.8 2 1.733L79.943 42.67c.333-.267.8-.067.8.4v33.54c0 .466-.6.666-.867.333l-37.34-44.675C41.336 30.8 39.602 30 37.668 30h-1.334C32.868 30 30 32.867 30 36.401V83.61a6.403 6.403 0 0 0 6.401 6.401c2.2 0 4.268-1.133 5.468-3.067L54.404 68.34c.867-1.267-.8-2.8-2-1.733L40.068 77.275c-.333.267-.8.067-.8-.4V43.403c0-.467.6-.667.867-.334l37.34 44.675c1.2 1.467 3.001 2.267 4.868 2.267h1.334a6.403 6.403 0 0 0 6.4-6.401V36.4a6.403 6.403 0 0 0-6.4-6.401 6.46 6.46 0 0 0-5.535 3.067"></path></svg>