<svg xmlns="http://www.w3.org/2000/svg" width="20" height="20" fill="none" viewBox="0 0 120 120" class="cb-icon cb-icon-pah pointer-events-none" aria-hidden="true" data-testid="icon-pah" focusable="false" role="img"><path fill="#321D47" d="M0 60C0 26.863 26.863 0 60 0s60 26.863 60 60-26.863 60-60 60S0 93.137 0 60"></path><path fill="#fff" d="M60.983 47.935 49.352 74H37l17.529-33h7.83zM70.615 74 58.952 47.935 57.444 41h7.93L83 74zm-.458-12.307v6.142H45.682v-6.142z"></path><circle cx="60" cy="97" r="9" fill="#E6007A"></circle><circle cx="60" cy="23" r="9" fill="#E6007A"></circle><circle cx="92.043" cy="78.5" r="9" fill="#E6007A" transform="rotate(-60 92.043 78.5)"></circle><circle cx="27.957" cy="41.5" r="9" fill="#E6007A" transform="rotate(-60 27.957 41.5)"></circle><circle cx="92.043" cy="41.5" r="9" fill="#E6007A" transform="rotate(-120 92.043 41.5)"></circle><circle cx="27.957" cy="78.5" r="9" fill="#E6007A" transform="rotate(-120 27.957 78.5)"></circle></svg>