<svg xmlns="http://www.w3.org/2000/svg" width="20" height="20" fill="none" viewBox="0 0 120 120" class="cb-icon cb-icon-poly pointer-events-none" aria-hidden="true" data-testid="icon-poly" focusable="false" role="img"><circle cx="60" cy="60" r="60" fill="#7A4ADD"></circle><path fill="#fff" d="m76.973 72.66 16.603-9.585A2.86 2.86 0 0 0 95 60.607V41.433a2.86 2.86 0 0 0-1.424-2.468L76.973 29.38a2.86 2.86 0 0 0-2.85 0L57.52 38.966a2.86 2.86 0 0 0-1.424 2.467v34.262l-11.642 6.72-11.643-6.72V62.25l11.642-6.72 7.68 4.432v-9.018l-6.255-3.61a2.86 2.86 0 0 0-2.849 0L26.424 56.92A2.86 2.86 0 0 0 25 59.388V78.56a2.86 2.86 0 0 0 1.424 2.468l16.604 9.587c.878.506 1.969.506 2.849 0L62.48 81.03a2.86 2.86 0 0 0 1.424-2.468V44.3l.21-.12 11.433-6.6L87.189 44.3v13.444l-11.642 6.721-7.669-4.426v9.018l6.244 3.607c.878.506 1.97.506 2.849 0z"></path></svg>