<svg xmlns="http://www.w3.org/2000/svg" width="20" height="20" fill="none" viewBox="0 0 120 120" class="cb-icon cb-icon-sol pointer-events-none" aria-hidden="true" data-testid="icon-sol" focusable="false" role="img"><circle cx="60" cy="60" r="60" fill="#000"></circle><path fill="url(#paint0_linear_1593_3853)" d="M37.195 74.215a2.25 2.25 0 0 1 1.594-.659h54.987c1.005 0 1.508 1.213.797 1.923L83.711 86.342a2.25 2.25 0 0 1-1.594.658H27.13c-1.005 0-1.508-1.213-.797-1.923z"></path><path fill="url(#paint1_linear_1593_3853)" d="M37.195 33.658A2.32 2.32 0 0 1 38.789 33h54.987c1.005 0 1.508 1.213.797 1.923L83.711 45.785a2.25 2.25 0 0 1-1.594.659H27.13c-1.005 0-1.508-1.213-.797-1.923z"></path><path fill="url(#paint2_linear_1593_3853)" d="M83.71 53.807a2.25 2.25 0 0 0-1.593-.659H27.13c-1.005 0-1.508 1.213-.797 1.923l10.862 10.863c.416.415.987.658 1.594.658h54.987c1.005 0 1.508-1.213.797-1.923z"></path><defs><linearGradient id="paint0_linear_1593_3853" x1="-98.281" x2="-99.744" y1="22.799" y2="96.418" gradientUnits="userSpaceOnUse"><stop stop-color="#00FFA3"></stop><stop offset="1" stop-color="#DC1FFF"></stop></linearGradient><linearGradient id="paint1_linear_1593_3853" x1="-114.921" x2="-116.384" y1="14.111" y2="87.731" gradientUnits="userSpaceOnUse"><stop stop-color="#00FFA3"></stop><stop offset="1" stop-color="#DC1FFF"></stop></linearGradient><linearGradient id="paint2_linear_1593_3853" x1="-106.654" x2="-108.117" y1="18.427" y2="92.046" gradientUnits="userSpaceOnUse"><stop stop-color="#00FFA3"></stop><stop offset="1" stop-color="#DC1FFF"></stop></linearGradient></defs></svg>