<svg xmlns="http://www.w3.org/2000/svg" width="20" height="20" fill="none" viewBox="0 0 48 48" class="cb-icon cb-icon-strk pointer-events-none" aria-hidden="true" data-testid="icon-strk" focusable="false" role="img"><path fill="#0C0C4F" fill-rule="evenodd" d="M0 24c0 13.254 10.745 24 24 24 13.254 0 24-10.746 24-24C48 10.745 37.254 0 24 0 10.745 0 0 10.745 0 24" clip-rule="evenodd"></path><path fill="#FAFAFA" fill-rule="evenodd" d="m13.414 18.346.592-1.83c.12-.373.415-.663.788-.777l1.84-.566c.254-.077.256-.437.004-.518l-1.831-.593a1.2 1.2 0 0 1-.777-.788l-.564-1.839a.272.272 0 0 0-.52-.003l-.592 1.83c-.12.371-.414.661-.788.776l-1.839.565a.272.272 0 0 0-.004.519l1.831.592a1.2 1.2 0 0 1 .776.789l.565 1.838a.272.272 0 0 0 .519.005" clip-rule="evenodd"></path><path fill="#EC796B" fill-rule="evenodd" d="M42.486 17.28c-.759-.848-1.942-1.325-3.093-1.52a10.6 10.6 0 0 0-3.52.032c-2.316.392-4.42 1.351-6.256 2.534-.954.581-1.766 1.253-2.608 1.937-.406.346-.776.715-1.161 1.078l-1.053 1.048c-1.144 1.195-2.272 2.284-3.362 3.187-1.096.898-2.12 1.581-3.129 2.058-1.008.479-2.087.76-3.494.805-1.394.05-3.044-.202-4.808-.617-1.774-.414-3.637-1.003-5.718-1.51.726 2.014 1.82 3.795 3.224 5.423 1.42 1.6 3.195 3.057 5.474 4.016 2.246.98 5.068 1.332 7.708.801 2.646-.51 4.968-1.734 6.845-3.15 1.882-1.43 3.404-3.06 4.688-4.754.354-.469.542-.73.798-1.096l.709-1.05c.492-.65.94-1.389 1.428-2.032.956-1.348 1.898-2.693 2.993-3.933a17 17 0 0 1 1.818-1.809 9.6 9.6 0 0 1 1.121-.807 5.3 5.3 0 0 1 1.395-.64" clip-rule="evenodd"></path><path fill="#FAFAFA" fill-rule="evenodd" d="M42.486 17.28c-.815-2.055-2.33-3.786-4.362-5.062-2.02-1.263-4.826-1.907-7.607-1.358a12.5 12.5 0 0 0-3.872 1.458 16.2 16.2 0 0 0-3.106 2.371c-.45.44-.86.898-1.265 1.36L21.22 17.39l-1.625 2.16c-2.072 2.778-4.303 6.035-7.965 7-3.594.947-5.153.108-7.347-.239.4 1.036.898 2.042 1.571 2.927.661.902 1.442 1.75 2.413 2.477.49.35 1.009.694 1.584.986.573.282 1.19.53 1.85.718 1.31.359 2.787.485 4.216.292 1.43-.191 2.797-.644 3.992-1.246 1.203-.596 2.252-1.322 3.188-2.089 1.86-1.545 3.308-3.253 4.53-4.978a35 35 0 0 0 1.69-2.622l.608-1.047c.186-.306.374-.614.564-.901.77-1.152 1.524-2.076 2.438-2.77.902-.711 2.159-1.237 3.837-1.359 1.672-.124 3.601.105 5.72.581" clip-rule="evenodd"></path><path fill="#EC796B" fill-rule="evenodd" d="M33.442 34.359a2.735 2.735 0 1 0 5.47-.001 2.735 2.735 0 0 0-5.47 0" clip-rule="evenodd"></path></svg>